<?xml version="1.0" encoding="UTF-8" standalone="no"?>
<!-- Generator: Adobe Illustrator 19.2.1, SVG Export Plug-In . SVG Version: 6.00 Build 0)  -->

<svg
   xmlns:dc="http://purl.org/dc/elements/1.1/"
   xmlns:cc="http://creativecommons.org/ns#"
   xmlns:rdf="http://www.w3.org/1999/02/22-rdf-syntax-ns#"
   xmlns:svg="http://www.w3.org/2000/svg"
   xmlns="http://www.w3.org/2000/svg"
   xmlns:sodipodi="http://sodipodi.sourceforge.net/DTD/sodipodi-0.dtd"
   xmlns:inkscape="http://www.inkscape.org/namespaces/inkscape"
   version="1.1"
   x="0px"
   y="0px"
   viewBox="0 0 370.8 270.3"
   style="enable-background:new 0 0 370.8 270.3;"
   xml:space="preserve"
   id="svg2"
   inkscape:version="0.91 r13725"
   sodipodi:docname="icon.svg"
   inkscape:export-xdpi="90"
   inkscape:export-ydpi="90"><metadata
     id="metadata144"><rdf:RDF><cc:Work
         rdf:about=""><dc:format>image/svg+xml</dc:format><dc:type
           rdf:resource="http://purl.org/dc/dcmitype/StillImage" /><dc:title></dc:title></cc:Work></rdf:RDF></metadata><defs
     id="defs142" /><sodipodi:namedview
     pagecolor="#ffffff"
     bordercolor="#666666"
     borderopacity="1"
     objecttolerance="10"
     gridtolerance="10"
     guidetolerance="10"
     inkscape:pageopacity="0"
     inkscape:pageshadow="2"
     inkscape:window-width="1920"
     inkscape:window-height="1103"
     id="namedview140"
     showgrid="false"
     inkscape:zoom="0.873104"
     inkscape:cx="185.39999"
     inkscape:cy="135.14999"
     inkscape:window-x="-9"
     inkscape:window-y="-9"
     inkscape:window-maximized="1"
     inkscape:current-layer="svg2" /><style
     type="text/css"
     id="style4">
	.st0{display:none;}
	.st1{display:inline;}
	.st2{fill:#014898;}
	.st3{fill:#DE3814;}
	.st4{fill:#FFFFFF;}
	.st5{fill:#E10C14;}
	.st6{fill:#1C3F8D;}
</style><g
     id="Ebene_2"
     class="st0"><g
       class="st1"
       id="g7"><g
         id="g9"><path
           class="st2"
           d="M-1297.8-1638h14.8c4.8,0,8.1,1.3,10.2,3.4c1.8,1.8,2.8,4.2,2.8,7.3v0.1c0,4.8-2.6,8-6.5,9.6l7.5,10.9h-10     l-6.3-9.5h-0.1h-3.7v9.5h-8.7V-1638z M-1283.4-1622.9c3,0,4.7-1.4,4.7-3.7v-0.1c0-2.5-1.8-3.7-4.7-3.7h-5.7v7.5H-1283.4z"
           id="path11" /></g><path
         class="st3"
         d="M-1247.7-1630.7h-14.5v-7.3h24.2v6.5l-13.8,24.8h-9.6L-1247.7-1630.7z"
         id="path13" /><path
         class="st3"
         d="M-1233.3-1611l5-5.8c2.6,2.2,5,3.4,7.6,3.4c2.9,0,4.6-1.4,4.6-3.7v-0.1c0-2.2-1.9-3.6-4.6-3.6    c-1.9,0-3.5,0.7-5,1.6l-5.2-2.9l0.9-15.9h21v7.2h-14.1l-0.3,4.7c1.4-0.7,2.9-1.1,5-1.1c5.6,0,10.8,3.1,10.8,9.9v0.1    c0,7-5.3,11.2-12.9,11.2C-1226.1-1606-1230-1607.9-1233.3-1611z"
         id="path15" /><g
         id="g17"><path
           class="st3"
           d="M-1201.1-1622.2L-1201.1-1622.2c0-9,5.6-16.4,14.6-16.4c8.9,0,14.5,7.3,14.5,16.2v0.1     c0,8.9-5.6,16.3-14.6,16.3S-1201.1-1613.3-1201.1-1622.2z M-1180.8-1622.2L-1180.8-1622.2c0-5.1-2.4-8.7-5.8-8.7     c-3.5,0-5.7,3.5-5.7,8.5v0.1c0,5,2.3,8.6,5.8,8.6S-1180.8-1617.2-1180.8-1622.2z"
           id="path19" /></g><g
         id="g21"><path
           class="st2"
           d="M-1162.7-1638h8.7v23.7h15.2v7.6h-23.9V-1638z"
           id="path23" /></g><path
         class="st2"
         d="M-1130.7-1638h25.1v7.6h-16.4v5.3h14.8v7.2h-14.8v11.2h-8.7V-1638z"
         id="path25" /><path
         class="st2"
         d="M-1098.9-1612.9l15.7-17.7h-15.2v-7.3h27.2v6.3l-15.7,17.7h15.7v7.3h-27.7V-1612.9z"
         id="path27" /><path
         class="st2"
         d="M-1062.4-1638h25.2v7.4h-16.6v4.7h15.1v6.9h-15.1v5h16.8v7.4h-25.5V-1638z"
         id="path29" /><path
         class="st2"
         d="M-1028.2-1638h8.7v23.7h15.2v7.6h-23.9V-1638z"
         id="path31" /><g
         id="g33"><path
           class="st2"
           d="M-996.6-1638h8.7v23.7h15.2v7.6h-23.9V-1638z"
           id="path35" /></g></g></g><rect
     style="fill:#ffffff"
     y="0"
     x="0"
     id="rect38"
     height="270.29999"
     width="370.79999"
     class="st4" /><rect
     x="22.799999"
     y="21.1"
     class="st5"
     width="325.29999"
     height="9"
     id="rect42"
     style="fill:#e10c14" /><path
     class="st6"
     d="m 348.1,249.9 c -9.3,0 -14.1,-4.9 -18,-8.8 -3.5,-3.6 -6.1,-6.1 -11.6,-6.1 -5.5,0 -8,2.6 -11.6,6.1 -3.9,3.9 -8.7,8.8 -18,8.8 -9.3,0 -14.1,-4.9 -18,-8.8 -3.5,-3.6 -6.1,-6.1 -11.6,-6.1 -5.5,0 -8,2.6 -11.6,6.1 -3.9,3.9 -8.7,8.8 -18,8.8 -9.3,0 -14.1,-4.9 -18,-8.8 -3.5,-3.6 -6.1,-6.1 -11.6,-6.1 -5.5,0 -8,2.6 -11.6,6.1 -3.9,3.9 -8.7,8.8 -18,8.8 -9.3,0 -14.1,-4.9 -18,-8.8 -3.5,-3.6 -6.1,-6.1 -11.6,-6.1 -5.5,0 -8,2.6 -11.6,6.1 -3.9,3.9 -8.7,8.8 -18,8.8 -9.3,0 -14.1,-4.9 -18,-8.8 -3.5,-3.6 -6.1,-6.1 -11.6,-6.1 -5.5,0 -8,2.6 -11.6,6.1 -3.9,3.9 -8.7,8.8 -18,8.8 -9.3,0 -14.1,-4.9 -18,-8.8 C 30.6,237.5 28,235 22.5,235 l 0,-9.1 c 9.3,0 14.1,4.9 18,8.8 3.5,3.6 6.1,6.1 11.6,6.1 5.5,0 8,-2.6 11.6,-6.1 3.9,-3.9 8.7,-8.8 18,-8.8 9.3,0 14.1,4.9 18,8.8 3.5,3.6 6.1,6.1 11.6,6.1 5.5,0 8,-2.6 11.6,-6.1 3.9,-3.9 8.7,-8.8 18,-8.8 9.3,0 14.1,4.9 18,8.8 3.5,3.6 6.1,6.1 11.6,6.1 5.5,0 8,-2.6 11.6,-6.1 3.9,-3.9 8.7,-8.8 18,-8.8 9.3,0 14.1,4.9 18,8.8 3.5,3.6 6.1,6.1 11.6,6.1 5.5,0 8,-2.6 11.6,-6.1 3.9,-3.9 8.7,-8.8 18,-8.8 9.3,0 14.1,4.9 18,8.8 3.5,3.6 6.1,6.1 11.6,6.1 5.5,0 8,-2.6 11.6,-6.1 3.9,-3.9 8.7,-8.8 18,-8.8 9.3,0 14.1,4.9 18,8.8 3.5,3.6 6.1,6.1 11.6,6.1 l 0,9.1 z"
     id="path54"
     inkscape:connector-curvature="0"
     style="fill:#1c3f8d" /><g
     id="g4371"
     transform="matrix(2.5688332,0,0,2.5688332,-35.926281,-111.70197)"><g
       id="g44"><path
         style="fill:#e10c14"
         inkscape:connector-curvature="0"
         id="path46"
         d="m 73.4,84.5 -15,0 0,-7.5 24.8,0 0,6.7 -14.2,25.6 -9.9,0 14.3,-24.8 z"
         class="st5" /><path
         style="fill:#e10c14"
         inkscape:connector-curvature="0"
         id="path48"
         d="m 87.1,104.8 5.1,-6 c 2.6,2.2 5.1,3.5 7.8,3.5 3,0 4.7,-1.5 4.7,-3.8 l 0,-0.1 c 0,-2.3 -1.9,-3.7 -4.7,-3.7 -2,0 -3.6,0.7 -5.2,1.6 l -5.3,-3 1,-16.3 21.6,0 0,7.4 -14.6,0 -0.3,4.9 c 1.5,-0.7 3,-1.2 5.2,-1.2 5.8,0 11.1,3.2 11.1,10.2 l 0,0.1 c 0,7.2 -5.5,11.5 -13.3,11.5 -5.7,0 -9.8,-2 -13.1,-5.1 z"
         class="st5" /><path
         style="fill:#e10c14"
         inkscape:connector-curvature="0"
         id="path50"
         d="m 119.3,93.2 0,0 c 0,-9.2 5.8,-16.9 15,-16.9 9.2,0 14.9,7.6 14.9,16.7 l 0,0.1 c 0,9.1 -5.8,16.8 -15,16.8 -9.3,0 -14.9,-7.5 -14.9,-16.7 z m 20.8,0 0,0 c 0,-5.2 -2.4,-8.9 -6,-8.9 -3.6,0 -5.9,3.6 -5.9,8.8 l 0,0.1 c 0,5.2 2.4,8.9 6,8.9 3.6,0 5.9,-3.8 5.9,-8.9 z"
         class="st5" /></g><g
       id="g124"><path
         style="fill:#1c3f8d"
         inkscape:connector-curvature="0"
         id="path126"
         d="m 22.9,77 15.3,0 c 4.9,0 8.3,1.3 10.5,3.5 1.9,1.8 2.9,4.3 2.9,7.5 l 0,0.1 C 51.6,93 49,96.3 45,98 l 7.7,11.2 -10.5,0 -6.5,-9.8 -0.1,0 -3.8,0 0,9.8 -8.9,0 0,-32.2 z m 14.8,15.5 c 3,0 4.8,-1.5 4.8,-3.8 l 0,-0.1 c 0,-2.5 -1.8,-3.8 -4.8,-3.8 l -5.9,0 0,7.7 5.9,0 z"
         class="st6" /></g></g></svg>