<?xml version="1.0" encoding="utf-8"?>
<!-- Generator: Adobe Illustrator 19.2.1, SVG Export Plug-In . SVG Version: 6.00 Build 0)  -->
<!DOCTYPE svg PUBLIC "-//W3C//DTD SVG 1.1//EN" "http://www.w3.org/Graphics/SVG/1.1/DTD/svg11.dtd">
<svg version="1.1" xmlns="http://www.w3.org/2000/svg" xmlns:xlink="http://www.w3.org/1999/xlink" x="0px" y="0px"
	 viewBox="0 0 370.8 270.3" style="enable-background:new 0 0 370.8 270.3;" xml:space="preserve">
<style type="text/css">
	.st0{display:none;}
	.st1{display:inline;}
	.st2{fill:#014898;}
	.st3{fill:#DE3814;}
	.st4{fill:#FFFFFF;}
	.st5{fill:#E10C14;}
	.st6{fill:#1C3F8D;}
</style>
<g id="Ebene_2" class="st0">
	<g class="st1">
		<g>
			<path class="st2" d="M-1297.8-1638h14.8c4.8,0,8.1,1.3,10.2,3.4c1.8,1.8,2.8,4.2,2.8,7.3v0.1c0,4.8-2.6,8-6.5,9.6l7.5,10.9h-10
				l-6.3-9.5h-0.1h-3.7v9.5h-8.7V-1638z M-1283.4-1622.9c3,0,4.7-1.4,4.7-3.7v-0.1c0-2.5-1.8-3.7-4.7-3.7h-5.7v7.5H-1283.4z"/>
		</g>
		<path class="st3" d="M-1247.7-1630.7h-14.5v-7.3h24.2v6.5l-13.8,24.8h-9.6L-1247.7-1630.7z"/>
		<path class="st3" d="M-1233.3-1611l5-5.8c2.6,2.2,5,3.4,7.6,3.4c2.9,0,4.6-1.4,4.6-3.7v-0.1c0-2.2-1.9-3.6-4.6-3.6
			c-1.9,0-3.5,0.7-5,1.6l-5.2-2.9l0.9-15.9h21v7.2h-14.1l-0.3,4.7c1.4-0.7,2.9-1.1,5-1.1c5.6,0,10.8,3.1,10.8,9.9v0.1
			c0,7-5.3,11.2-12.9,11.2C-1226.1-1606-1230-1607.9-1233.3-1611z"/>
		<g>
			<path class="st3" d="M-1201.1-1622.2L-1201.1-1622.2c0-9,5.6-16.4,14.6-16.4c8.9,0,14.5,7.3,14.5,16.2v0.1
				c0,8.9-5.6,16.3-14.6,16.3S-1201.1-1613.3-1201.1-1622.2z M-1180.8-1622.2L-1180.8-1622.2c0-5.1-2.4-8.7-5.8-8.7
				c-3.5,0-5.7,3.5-5.7,8.5v0.1c0,5,2.3,8.6,5.8,8.6S-1180.8-1617.2-1180.8-1622.2z"/>
		</g>
		<g>
			<path class="st2" d="M-1162.7-1638h8.7v23.7h15.2v7.6h-23.9V-1638z"/>
		</g>
		<path class="st2" d="M-1130.7-1638h25.1v7.6h-16.4v5.3h14.8v7.2h-14.8v11.2h-8.7V-1638z"/>
		<path class="st2" d="M-1098.9-1612.9l15.7-17.7h-15.2v-7.3h27.2v6.3l-15.7,17.7h15.7v7.3h-27.7V-1612.9z"/>
		<path class="st2" d="M-1062.4-1638h25.2v7.4h-16.6v4.7h15.1v6.9h-15.1v5h16.8v7.4h-25.5V-1638z"/>
		<path class="st2" d="M-1028.2-1638h8.7v23.7h15.2v7.6h-23.9V-1638z"/>
		<g>
			<path class="st2" d="M-996.6-1638h8.7v23.7h15.2v7.6h-23.9V-1638z"/>
		</g>
	</g>
</g>
<g id="Ebene_1">
	<rect class="st4" width="370.8" height="270.3"/>
	<g>
		<rect x="22.8" y="21.1" class="st5" width="325.3" height="9"/>
		<g>
			<path class="st5" d="M73.4,84.5H58.4V77h24.8v6.7L69,109.3h-9.9L73.4,84.5z"/>
			<path class="st5" d="M87.1,104.8l5.1-6c2.6,2.2,5.1,3.5,7.8,3.5c3,0,4.7-1.5,4.7-3.8v-0.1c0-2.3-1.9-3.7-4.7-3.7
				c-2,0-3.6,0.7-5.2,1.6l-5.3-3L90.5,77h21.6v7.4H97.5l-0.3,4.9c1.5-0.7,3-1.2,5.2-1.2c5.8,0,11.1,3.2,11.1,10.2v0.1
				c0,7.2-5.5,11.5-13.3,11.5C94.5,109.9,90.4,107.9,87.1,104.8z"/>
			<path class="st5" d="M119.3,93.2L119.3,93.2c0-9.2,5.8-16.9,15-16.9s14.9,7.6,14.9,16.7v0.1c0,9.1-5.8,16.8-15,16.8
				C124.9,109.9,119.3,102.4,119.3,93.2z M140.1,93.2L140.1,93.2c0-5.2-2.4-8.9-6-8.9c-3.6,0-5.9,3.6-5.9,8.8v0.1
				c0,5.2,2.4,8.9,6,8.9S140.1,98.3,140.1,93.2z"/>
		</g>
	</g>
	<g>
		<path class="st6" d="M348.1,249.9c-9.3,0-14.1-4.9-18-8.8c-3.5-3.6-6.1-6.1-11.6-6.1s-8,2.6-11.6,6.1c-3.9,3.9-8.7,8.8-18,8.8
			c-9.3,0-14.1-4.9-18-8.8c-3.5-3.6-6.1-6.1-11.6-6.1c-5.5,0-8,2.6-11.6,6.1c-3.9,3.9-8.7,8.8-18,8.8c-9.3,0-14.1-4.9-18-8.8
			c-3.5-3.6-6.1-6.1-11.6-6.1c-5.5,0-8,2.6-11.6,6.1c-3.9,3.9-8.7,8.8-18,8.8c-9.3,0-14.1-4.9-18-8.8c-3.5-3.6-6.1-6.1-11.6-6.1
			c-5.5,0-8,2.6-11.6,6.1c-3.9,3.9-8.7,8.8-18,8.8c-9.3,0-14.1-4.9-18-8.8c-3.5-3.6-6.1-6.1-11.6-6.1c-5.5,0-8,2.6-11.6,6.1
			c-3.9,3.9-8.7,8.8-18,8.8c-9.3,0-14.1-4.9-18-8.8c-3.5-3.6-6.1-6.1-11.6-6.1v-9.1c9.3,0,14.1,4.9,18,8.8c3.5,3.6,6.1,6.1,11.6,6.1
			c5.5,0,8-2.6,11.6-6.1c3.9-3.9,8.7-8.8,18-8.8c9.3,0,14.1,4.9,18,8.8c3.5,3.6,6.1,6.1,11.6,6.1c5.5,0,8-2.6,11.6-6.1
			c3.9-3.9,8.7-8.8,18-8.8c9.3,0,14.1,4.9,18,8.8c3.5,3.6,6.1,6.1,11.6,6.1c5.5,0,8-2.6,11.6-6.1c3.9-3.9,8.7-8.8,18-8.8
			c9.3,0,14.1,4.9,18,8.8c3.5,3.6,6.1,6.1,11.6,6.1c5.5,0,8-2.6,11.6-6.1c3.9-3.9,8.7-8.8,18-8.8c9.3,0,14.1,4.9,18,8.8
			c3.5,3.6,6.1,6.1,11.6,6.1c5.5,0,8-2.6,11.6-6.1c3.9-3.9,8.7-8.8,18-8.8s14.1,4.9,18,8.8c3.5,3.6,6.1,6.1,11.6,6.1V249.9z"/>
		<g>
			<path class="st6" d="M97.1,149.4c0-0.1,0.3,0,0.3,0c-0.1,1.3-0.1,2.4-0.1,3.9c0,0.1-0.3,0.1-0.3,0c-0.5-1.3-1-2-1.5-2.5
				c-0.6-0.6-1.3-1-2.5-1c-1,0-1.6,0.3-2.1,0.7c-0.4,0.4-0.6,0.9-0.6,1.4c0,1.2,0.9,1.6,3,2.2c2.3,0.6,3.3,1.1,3.9,1.7
				c0.5,0.5,0.8,1.2,0.8,2.2c0,2.2-1.9,3.8-4.4,3.8c-2.2,0-3.4-1.1-3.8-1.1c-0.2,0-0.7,0.4-1,1c-0.1,0.1-0.3,0-0.3,0
				c0-1.4,0-2.5-0.1-4.3c0-0.1,0.3-0.1,0.3-0.1c0.7,1.6,1.2,2.4,1.8,3c0.7,0.7,1.8,1.2,3,1.2c1,0,1.7-0.3,2.1-0.7
				c0.4-0.4,0.6-0.8,0.6-1.4c0-1.1-0.8-1.7-3.1-2.3c-2.1-0.5-3.1-1-3.7-1.6c-0.5-0.5-0.8-1.1-0.8-2.2c0-2,1.7-3.8,4.3-3.8
				c2.1,0,3.1,0.9,3.2,0.9C96.4,150.4,96.8,149.8,97.1,149.4"/>
			<path class="st6" d="M102.1,149.7c0-0.1,0.1-0.2,0.2-0.2c1,0,3.9,0.1,5.7,0.1c2,0,3.9,0,5.3-0.1c0.2,0,0.3,0,0.3,0.1
				c0,1.4,0.1,2.8,0,4.6c0,0.1-0.3,0.1-0.3,0c-0.6-1.7-1.2-3.3-1.7-3.8c-0.3-0.3-0.6-0.4-1.7-0.4c-0.4,0-0.5,0-0.6,0
				c0,0,0,0.2-0.1,2.4c0,2.3-0.1,5.3-0.1,7.7c0,0.7,0,0.9,0.1,1c0.1,0.1,0.2,0.1,2,0.2c0,0,0,0.4,0,0.4c-2.4-0.1-4.6-0.1-6.9,0
				c-0.1,0-0.1-0.4,0-0.4c1.6-0.1,1.9-0.1,2-0.2c0.1-0.1,0.2-0.5,0.2-1.9c0-2.5,0-4.9,0-7.6c0-1.3,0-1.5-0.1-1.6
				c0,0-0.2-0.1-0.9-0.1c-0.8,0-1.1,0.1-1.4,0.5c-0.6,0.6-1.3,2.2-1.9,3.9c0,0.1-0.3,0.1-0.3,0C102.1,152.4,102.1,150.9,102.1,149.7
				"/>
			<path class="st6" d="M121.7,151.9c-0.8,2-1.7,3.9-2.4,5.5c1.2,0.1,3.2,0.1,4.4,0.1C123.1,155.5,122.3,153.3,121.7,151.9
				L121.7,151.9z M117.1,160.8c0.3-0.3,0.6-0.8,0.9-1.5c1.5-3.4,3.1-6.9,4.3-10c0-0.1,0.2-0.1,0.7-0.1c0.6,0,0.7,0,0.7,0.1
				c0.6,1.7,1.5,4.3,3.6,10.2c0.4,1,0.5,1.3,0.8,1.5c0.2,0.2,0.3,0.2,1.4,0.2c0.1,0,0,0.4,0,0.4c-1.1,0-2,0-2.9,0c-1,0-1.8,0-2.9,0
				c-0.1,0-0.1-0.4,0-0.4c0.9-0.1,1.1-0.1,1.2-0.2c0.1-0.1,0.1-0.3,0-0.7c-0.2-0.5-0.5-1.5-0.9-2.5c-0.4,0-1.5-0.1-2.8-0.1
				c-0.7,0-1.2,0-1.8,0c-0.1,0-0.2,0-0.2,0.1c-0.3,0.6-0.4,1-0.7,1.6c-0.1,0.3-0.2,0.7-0.2,0.9c0,0.6,0.3,0.7,1.5,0.8
				c0,0,0,0.3,0,0.3c-1.1,0-2.8,0-4.1,0c0,0,0-0.3,0-0.3C116.5,161.2,116.8,161.1,117.1,160.8"/>
			<path class="st6" d="M136.9,150.7c0,0.8,0,3.7,0,5c0,1.3,0,3,0,4.3c0,0.7,0.1,1,0.1,1c0.1,0.1,0.2,0.1,1.5,0.1
				c1.6,0,2.7-0.6,3.4-1.8c0.4-0.8,0.6-1.8,0.6-3.6c0-1.9-0.2-3.4-0.7-4.3c-0.5-1.1-1.4-1.5-3.3-1.5c-1.2,0-1.4,0-1.5,0.1
				C136.9,150.1,136.9,150.2,136.9,150.7 M135.5,149.6c1,0,2.3,0,3.3,0c2.3,0,4,0.6,5.2,1.8c0.9,0.9,1.4,2.2,1.4,3.7
				c0,2.1-0.8,3.5-1.8,4.6c-1.2,1.2-2.9,2-5,2c-1.1,0-2.7-0.1-3.7,0c-1,0-1.9,0-2.5,0c-0.1,0-0.1-0.4,0-0.4c1.3-0.1,1.6-0.1,1.6-0.1
				c0.1-0.1,0.1-0.4,0.1-1.2c0-0.7,0-2.2,0-3.4c0-1.3,0-3.6,0-4.7c0-1.1-0.1-1.7-0.2-1.8c-0.1-0.1-0.5-0.1-1.6-0.1
				c-0.1,0-0.1-0.4,0-0.4C133.6,149.6,134.6,149.6,135.5,149.6"/>
			<path class="st6" d="M149.6,149.7c0-0.1,0.1-0.2,0.2-0.2c1,0,3.9,0.1,5.7,0.1c2,0,3.9,0,5.3-0.1c0.2,0,0.3,0,0.3,0.1
				c0,1.4,0.1,2.8,0,4.6c0,0.1-0.3,0.1-0.3,0c-0.6-1.7-1.2-3.3-1.7-3.8c-0.3-0.3-0.6-0.4-1.7-0.4c-0.4,0-0.5,0-0.6,0
				c0,0,0,0.2-0.1,2.4c0,2.3-0.1,5.3-0.1,7.7c0,0.7,0,0.9,0.1,1c0.1,0.1,0.2,0.1,2,0.2c0,0,0,0.4,0,0.4c-2.4-0.1-4.6-0.1-6.9,0
				c-0.1,0-0.1-0.4,0-0.4c1.6-0.1,1.9-0.1,2-0.2c0.1-0.1,0.2-0.5,0.2-1.9c0-2.5,0-4.9,0-7.6c0-1.3,0-1.5-0.1-1.6
				c0,0-0.2-0.1-0.9-0.1c-0.8,0-1.1,0.1-1.4,0.5c-0.6,0.6-1.3,2.2-1.9,3.9c0,0.1-0.3,0.1-0.3,0C149.6,152.4,149.6,150.9,149.6,149.7
				"/>
			<path class="st6" d="M181.3,149.4c0-0.1,0.3,0,0.3,0c-0.1,1.3-0.1,2.4-0.1,3.9c0,0.1-0.3,0.1-0.3,0c-0.5-1.3-1-2-1.5-2.5
				c-0.6-0.6-1.3-1-2.5-1c-1,0-1.6,0.3-2.1,0.7c-0.4,0.4-0.6,0.9-0.6,1.4c0,1.2,0.9,1.6,3,2.2c2.3,0.6,3.3,1.1,3.9,1.7
				c0.5,0.5,0.8,1.2,0.8,2.2c0,2.2-1.9,3.8-4.4,3.8c-2.2,0-3.4-1.1-3.8-1.1c-0.2,0-0.7,0.4-0.9,1c-0.1,0.1-0.3,0-0.3,0
				c0-1.4,0-2.5-0.1-4.3c0-0.1,0.3-0.1,0.3-0.1c0.7,1.6,1.2,2.4,1.8,3c0.7,0.7,1.8,1.2,3,1.2c1,0,1.7-0.3,2.1-0.7
				c0.4-0.4,0.6-0.8,0.6-1.4c0-1.1-0.8-1.7-3.1-2.3c-2.1-0.5-3.1-1-3.7-1.6c-0.5-0.5-0.8-1.1-0.8-2.2c0-2,1.7-3.8,4.3-3.8
				c2.1,0,3.1,0.9,3.2,0.9C180.7,150.4,181.1,149.8,181.3,149.4"/>
			<path class="st6" d="M192,149.6c1.5,0,3.1,0,5.1-0.1c0.1,0,0.1,0.1,0.1,0.2c-0.1,1.3-0.2,2.9-0.2,4.1c0,0.1-0.3,0.1-0.3,0
				c-0.5-1.7-1-2.7-1.4-3.2c-0.5-0.5-0.9-0.6-2.7-0.6c-1.4,0-1.6,0-1.7,0c0,0,0,0.6,0,2.3c0,0.7,0,2,0,2.7c0.4,0,0.6,0,1.1,0
				c0.9,0,1.4-0.2,1.7-0.4c0.3-0.2,0.4-0.6,0.6-1.9c0-0.1,0.4-0.1,0.4,0c0,1.9-0.1,3.8,0,5.1c0,0.1-0.3,0.1-0.3,0
				c-0.3-1.3-0.5-1.9-0.7-2.1c-0.2-0.2-0.5-0.3-1.3-0.3c-0.6,0-1.1,0-1.4,0c0,0.6,0,1.5,0,2.1c0,2.9,0,3.3,0.1,3.4
				c0.1,0.1,0.5,0.1,1.5,0.1h1.5c0.8,0,1.3-0.2,1.7-0.6c0.6-0.6,1.1-1.9,1.6-3.7c0-0.1,0.4-0.1,0.4,0c0,1.5-0.1,3.1-0.1,4.6
				c0,0.1,0,0.1-0.1,0.1c-2.9,0-3.6,0-5.7,0c-2.4,0-3.5,0-5.4,0c-0.1,0-0.1-0.4,0-0.4c1.4,0,1.6-0.1,1.7-0.1
				c0.1-0.1,0.1-0.9,0.1-3.7c0-1.6,0-3.1,0-5c0-1.9,0-2.2-0.1-2.3c-0.1-0.1-0.3-0.1-1.6-0.1c-0.1,0,0-0.4,0-0.4
				C187.4,149.5,191.1,149.6,192,149.6"/>
			<path class="st6" d="M207.8,149.5c0,0,0,0.4,0,0.4c-1.1,0-1.3,0-1.3,0.1c-0.1,0.1-0.1,0.4-0.2,2.2c0,1.2,0,2.9,0,3.9
				c0,1.1,0,2.3,0,3.3c0,1.2,0.1,1.5,0.1,1.6c0.1,0.1,0.3,0.1,1.6,0.1c0.1,0,0.1,0.4,0,0.4c-1.2,0-2.1,0-3.1,0c-1.1,0-2.1,0-3,0
				c-0.1,0-0.1-0.4,0-0.4c1.2,0,1.5-0.1,1.6-0.1c0.1-0.1,0.1-0.6,0.1-1.5c0-1.5,0-2.3,0-3.5c0-1,0-2.8,0-4.1c0-1.3-0.1-1.9-0.2-2
				c-0.1-0.1-0.6-0.1-1.5-0.1c0,0-0.1-0.4,0-0.4C204,149.6,205.7,149.5,207.8,149.5"/>
			<path class="st6" d="M212,149.7c0-0.1,0.1-0.2,0.2-0.2c1,0,3.9,0.1,5.7,0.1c2,0,3.9,0,5.3-0.1c0.2,0,0.3,0,0.3,0.1
				c0,1.4,0.1,2.8,0,4.6c0,0.1-0.3,0.1-0.3,0c-0.6-1.7-1.2-3.3-1.7-3.8c-0.3-0.3-0.6-0.4-1.7-0.4c-0.4,0-0.5,0-0.6,0
				c0,0,0,0.2-0.1,2.4c0,2.3-0.1,5.3-0.1,7.7c0,0.7,0,0.9,0.1,1c0.1,0.1,0.2,0.1,2,0.2c0,0,0,0.4,0,0.4c-2.4-0.1-4.6-0.1-6.9,0
				c-0.1,0-0.1-0.4,0-0.4c1.6-0.1,1.9-0.1,2-0.2c0.1-0.1,0.2-0.5,0.2-1.9c0-2.5,0-4.9,0-7.6c0-1.3,0-1.5-0.1-1.6
				c0,0-0.2-0.1-0.9-0.1c-0.8,0-1.1,0.1-1.4,0.5c-0.6,0.6-1.3,2.2-1.9,3.9c0,0.1-0.3,0.1-0.3,0C212,152.4,212,150.9,212,149.7"/>
			<path class="st6" d="M236.8,150.2c0,0-0.5,0-2.2,0.1c0,0-0.1-0.4,0-0.4c1.9-0.1,3.2-0.2,4.9-0.5c0.1,0,0.1,0,0.1,0.1
				c0,1.4-0.1,2.9-0.1,4.9c0,2.6,0,4.7,0,6.4c0,0.2,0,0.3,0.1,0.4c0,0,0.6,0,2.2,0.1c0,0,0,0.4,0,0.4c-1.2,0-1.7,0-3.6,0
				c-1.8,0-2.5,0-3.7,0c-0.1,0-0.1-0.4,0-0.4c1.6,0,2.3,0,2.3-0.1c0,0,0.1-0.2,0.1-0.3c0-1.1,0-3.6,0-5.9
				C236.8,152.5,236.9,150.2,236.8,150.2"/>
			<path class="st6" d="M254.1,150.7c0.5,0.5,0.8,1.1,0.8,1.9c0,0.9-0.3,1.5-0.9,2.1c-1.2,1.2-3.9,2.3-6.2,4.8c0,0,0,0,0,0
				c0.4,0,2.1,0,3,0c2.6,0,2.9,0,3-0.1c0.1-0.2,0.4-0.9,1-2.3c0,0,0.4,0.1,0.4,0.1c-0.7,1.7-1,2.7-1.3,4.1c0,0.1-0.1,0.1-0.2,0.1
				c-1,0-3.2,0-4.9,0c-1.8,0-2.9,0-3.5,0c0,0-0.1-0.2-0.1-0.2c0.2-0.3,0.8-0.9,2-2.1c1.2-1.2,2.6-2.3,3.2-3c1.1-1.1,1.5-1.8,1.5-3.9
				c0-0.9-0.1-1.3-0.3-1.8c-0.2-0.5-0.8-0.9-1.9-0.9c-0.9,0-1.7,0.4-2.2,0.9c-0.5,0.5-0.6,1-0.5,1c0.2,0.1,0.7-0.2,1.3,0.1
				c0.5,0.3,0.8,0.7,0.8,1.3c0,0.9-0.6,1.5-1.4,1.5c-0.9,0-1.6-0.8-1.6-1.7c0-0.8,0.4-1.7,1-2.3c0.7-0.7,1.6-1.2,3.1-1.2
				C252.2,149.4,253.4,150,254.1,150.7"/>
			<path class="st6" d="M262.6,156.2c-0.2,0.4-0.2,0.8-0.2,1.5c0,1.5,0.1,2.2,0.4,2.8c0.3,0.7,0.9,1,1.7,1c0.8,0,1.2-0.3,1.4-0.8
				c0.2-0.5,0.4-1.4,0.4-2.9c0-1.3-0.2-1.9-0.4-2.4c-0.3-0.5-0.7-0.8-1.3-0.8C263.8,154.7,263.1,155.3,262.6,156.2 M268.1,150.2
				c0.5,0.4,0.9,0.9,0.9,1.4c0,0.7-0.6,1.3-1.4,1.3c-0.9,0-1.5-0.6-1.5-1.3c0-0.2,0.1-0.4,0.1-0.6c0.3-0.6,1-0.7,1-0.8
				c0-0.2-0.8-0.7-2.1-0.7c-1,0-1.6,0.5-2,1.1c-0.5,1-0.7,2.8-0.7,5.1c0,0,0,0,0,0c0.5-1,1.4-1.7,2.7-1.7c1.1,0,2.4,0.5,3.2,1.3
				c0.6,0.6,0.9,1.3,0.9,2.2c0,1.1-0.5,1.9-1.2,2.6c-0.9,0.9-2.3,1.5-3.5,1.5c-1.2,0-2.4-0.6-3.3-1.4c-1-1-1.7-2.5-1.7-4.4
				c0-2.1,0.8-4,2-5.2c0.8-0.8,2-1.5,3.5-1.5C266.5,149.3,267.5,149.8,268.1,150.2"/>
			<path class="st6" d="M280.5,149.8c0.9,0,1.2,0,1.2-0.1c0.1,0,0.2-0.3,0.3-0.6c0-0.1,0.4,0,0.4,0.1c-0.3,1.1-1.1,2.2-1.8,3.7
				c-1.8,3.7-1.9,4.4-2.1,8.6c0,0.1,0,0.2-0.1,0.2c-0.6,0-1.9,0-2.5,0c-0.1,0-0.1,0-0.1-0.1c0.4-2.8,2.2-4.4,4.8-9.6l0,0
				c-2,0-4.5-0.1-6.2-0.2c-0.2,0-0.3,0-0.3,0.1c-0.1,1-0.1,1.5-0.2,2.5c0,0.1-0.4,0.1-0.4,0c0.1-1.5,0.2-3.3,0.1-4.6
				c0-0.1,0.1-0.1,0.1-0.1C275.9,149.7,278,149.8,280.5,149.8"/>
			<path class="st6" d="M27.4,174v3.9c0,0.6,0,0.7,0,0.8c0.1,0,0.4,0.1,1.1,0.1c1.5,0,2.3-0.3,2.7-1c0.2-0.4,0.3-1,0.3-2
				c0-0.7-0.1-1.3-0.3-1.7c-0.3-0.6-0.9-0.9-2.4-0.9c-1.3,0-1.4,0-1.5,0C27.4,173.3,27.4,173.4,27.4,174 M26,172.8
				c0.7,0,2.5,0,3.4,0c2,0,3.6,0.4,4.5,1.3c0.4,0.4,0.6,0.9,0.6,1.6c0,1.9-2.1,3-4.1,3.2v0.1c2,0.4,3,1,3.4,2.9
				c0.4,1.9,0.6,2.2,1.1,2.2c0.4,0,0.8-0.5,1.2-1.6c0-0.1,0.4,0.1,0.4,0.2c-0.5,1.5-1.2,2.2-2.5,2.2c-0.8,0-1.4-0.2-1.8-0.6
				c-0.5-0.6-0.9-1.3-1.2-3.1c-0.4-1.8-0.8-2.1-1.9-2.1h-1.5c-0.1,0-0.1,0-0.1,0.1c0,1.6,0,3.9,0,4.4c0,0.5,0,0.6,0.1,0.7
				c0.1,0.1,0.2,0.1,1.8,0.1c0.1,0,0.1,0.4,0,0.4c-1.2,0-4-0.1-6.3,0c-0.1,0-0.1-0.4,0-0.4c1.3,0,1.6-0.1,1.6-0.1s0.1-0.3,0.1-0.9
				c0-2.9,0-4.5,0-5.1c0-1.9,0-3.9,0-4.2c0-0.7,0-0.8-0.1-0.8c-0.1-0.1-0.2-0.1-1.7-0.1c-0.1,0-0.1-0.4,0-0.4
				C24.4,172.8,25.2,172.8,26,172.8"/>
			<path class="st6" d="M44.9,175.1c-0.8,2-1.7,3.9-2.4,5.5c1.2,0.1,3.2,0.1,4.4,0.1C46.3,178.8,45.5,176.6,44.9,175.1L44.9,175.1z
				 M40.3,184.1c0.3-0.3,0.6-0.8,0.9-1.5c1.5-3.4,3.1-6.9,4.3-10c0-0.1,0.2-0.1,0.7-0.1c0.6,0,0.7,0,0.7,0.1
				c0.6,1.7,1.5,4.3,3.6,10.2c0.4,1,0.5,1.3,0.8,1.5c0.2,0.2,0.3,0.2,1.4,0.2c0.1,0,0,0.4,0,0.4c-1.1,0-2,0-2.9,0c-1,0-1.8,0-2.9,0
				c-0.1,0-0.1-0.4,0-0.4c0.9-0.1,1.1-0.1,1.2-0.2c0.1-0.1,0.1-0.3,0-0.7c-0.2-0.5-0.5-1.5-0.9-2.5c-0.4,0-1.5-0.1-2.8-0.1
				c-0.7,0-1.2,0-1.8,0c-0.1,0-0.2,0-0.2,0.1c-0.3,0.6-0.4,1-0.7,1.6c-0.1,0.3-0.2,0.7-0.2,0.9c0,0.6,0.3,0.7,1.5,0.8
				c0,0,0,0.3,0,0.3c-1.1,0-2.8,0-4.1,0c0,0,0-0.3,0-0.3C39.7,184.5,40,184.4,40.3,184.1"/>
			<path class="st6" d="M60.1,173.9c0,0.8,0,3.7,0,5.1c0,1.3,0,2.9,0,4.3c0,0.7,0.1,1,0.1,1c0.1,0.1,0.2,0.1,1.5,0.1
				c1.6,0,2.7-0.6,3.4-1.8c0.4-0.8,0.6-1.8,0.6-3.6c0-1.9-0.2-3.4-0.7-4.3c-0.5-1.1-1.4-1.5-3.3-1.5c-1.2,0-1.4,0-1.5,0.1
				C60.1,173.4,60.1,173.5,60.1,173.9 M58.7,172.8c1,0,2.3,0,3.3,0c2.3,0,4,0.6,5.2,1.8c0.9,0.9,1.4,2.2,1.4,3.7
				c0,2.1-0.8,3.5-1.8,4.6c-1.2,1.2-2.9,2-5,2c-1.1,0-2.7-0.1-3.7,0c-1,0-1.9,0-2.5,0c-0.1,0-0.1-0.4,0-0.4c1.3-0.1,1.6-0.1,1.6-0.1
				c0.1-0.1,0.1-0.4,0.1-1.2c0-0.7,0-2.2,0-3.4c0-1.3,0-3.6,0-4.7c0-1.1-0.1-1.7-0.2-1.8c-0.1-0.1-0.5-0.1-1.6-0.1
				c-0.1,0-0.1-0.4,0-0.4C56.8,172.8,57.8,172.8,58.7,172.8"/>
			<path class="st6" d="M76,179.3c0,2.1,0.2,3.1,0.6,3.9c0.5,1.1,1.6,1.5,2.7,1.5c1.4,0,2.3-0.6,2.9-1.7c0.4-0.8,0.7-2.2,0.7-4.2
				c0-2.4-0.2-3.6-0.6-4.5c-0.4-0.8-1.2-1.3-2.8-1.3c-1.5,0-2.4,0.8-2.9,1.6C76.3,175.5,76,176.8,76,179.3 M74.6,183.1
				c-1-1-1.7-2.3-1.7-4.3c0-1.5,0.6-3,1.8-4.2c1.2-1.2,2.8-2,5-2c2,0,3.5,0.9,4.6,1.9c1,1,1.6,2.4,1.6,4c0,1.8-0.8,3.4-2,4.7
				c-1,1-2.6,1.9-4.7,1.9C77.4,185.1,75.8,184.2,74.6,183.1"/>
			<path class="st6" d="M92.9,172.8H96c0.1,0,0.1,0.4,0,0.4c-1.5,0-1.7,0-1.7,0.1c-0.1,0.1-0.1,0.7-0.1,3.2c0,1.7,0,2.3,0,5.6
				c0,1.8,0,2.2,0.1,2.2c0.1,0.1,0.4,0.1,1.4,0.1c1.5,0,2.1-0.2,2.5-0.6c0.5-0.5,1-1.6,1.7-3.9c0-0.1,0.3-0.1,0.3,0
				c0,1.3-0.1,3.7-0.2,4.8c0,0.1,0,0.2-0.2,0.2c-1.5-0.1-3,0-5,0c-2.2,0-3.9,0-5.1,0c-0.1,0-0.1-0.4,0-0.4c1.4,0,1.6,0,1.7-0.1
				c0.1-0.1,0.1-0.4,0.1-1.5c0-2.4,0.1-5,0.1-7.1c0-1.9,0-2.4-0.1-2.5c-0.1-0.1-0.3-0.1-1.6-0.1c-0.1,0-0.1-0.4,0-0.4
				C90.6,172.8,92.1,172.8,92.9,172.8"/>
			<path class="st6" d="M108.7,172.8c2.8,0,3.5,0,5.7,0c0.1,0,0.1,0,0.1,0.1c0,1.2,0,2.7-0.1,4.1c0,0.1-0.3,0.1-0.3,0
				c-0.6-1.9-1-2.8-1.5-3.2c-0.5-0.5-0.9-0.7-2.3-0.7c-1.3,0-1.6,0-1.8,0c0,0.2-0.1,0.6-0.1,1.8c0,0.7,0,2.3,0,3.4
				c0.1,0,0.2,0,0.9,0c0.9,0,1.4-0.1,1.6-0.3c0.3-0.2,0.4-0.6,0.7-2.1c0-0.1,0.4-0.1,0.4,0c0,0.7-0.1,1.8-0.1,2.6
				c0,0.8,0.1,1.8,0.1,2.5c0,0.1-0.3,0.1-0.3,0c-0.2-1.2-0.5-1.7-0.7-2c-0.2-0.2-0.6-0.3-1.6-0.3c-0.4,0-0.8,0-0.9,0
				c0,1.2,0,3.5,0,4.5c0,0.7,0.1,0.9,0.1,1c0.1,0.1,0.2,0.1,2,0.1c0.1,0,0.1,0.4,0,0.4h-3.2c-1.2,0-2.5,0-3.5,0
				c-0.1,0-0.1-0.4,0-0.4c1.4,0,1.7-0.1,1.8-0.1c0.1-0.1,0.1-0.3,0.1-1.1c0-1.6,0-2.9,0-4.7c0-1.2,0-2.7,0-3.8c0-1.1,0-1.3-0.1-1.4
				c-0.1-0.1-0.2-0.1-1.6-0.1c-0.1,0-0.1-0.4,0-0.4C104.6,172.8,107.5,172.8,108.7,172.8"/>
			<path class="st6" d="M123.2,172.8c1.9,0,5,0,6.1,0c0,0,0.1,0.2,0,0.3c-2,2.7-5.8,7.9-8.3,11.3v0c1,0,2.6,0,3.9,0
				c1.1,0,1.5-0.1,2-0.6c0.4-0.5,1-1.4,1.7-3.8c0-0.1,0.3-0.1,0.3,0c0,1,0,3.5-0.1,4.7c0,0.1,0,0.1-0.1,0.2c-1.3,0-3.3-0.1-5.2-0.1
				c-1.8,0-4,0-5.8,0c-0.1,0-0.1-0.3-0.1-0.3c3.3-4.5,6.7-9.1,8.2-11.2l0,0c-0.3,0-0.9,0-2.2,0c-2.1,0-2.4,0.2-2.8,0.6
				c-0.4,0.4-1,1.3-1.8,3.3c0,0.1-0.3,0-0.3,0c0-1.1,0.1-3.4,0.2-4.2c0-0.1,0.1-0.1,0.2-0.1C120.6,172.8,122.1,172.8,123.2,172.8"/>
			<path class="st6" d="M138.9,172.9c1.5,0,3.1,0,5.1-0.1c0.1,0,0.1,0.1,0.1,0.2c-0.1,1.3-0.2,2.9-0.2,4.1c0,0.1-0.3,0.1-0.3,0
				c-0.5-1.7-1-2.7-1.4-3.2c-0.5-0.5-0.9-0.6-2.7-0.6c-1.4,0-1.6,0-1.7,0c0,0,0,0.6,0,2.3c0,0.7,0,2,0,2.7c0.4,0,0.6,0,1.1,0
				c0.9,0,1.4-0.2,1.7-0.4c0.3-0.2,0.4-0.6,0.6-1.9c0-0.1,0.4-0.1,0.4,0c0,1.9-0.1,3.8,0,5.1c0,0.1-0.3,0.1-0.3,0
				c-0.3-1.3-0.5-1.9-0.7-2.1c-0.2-0.2-0.5-0.3-1.3-0.3c-0.6,0-1.1,0-1.4,0c0,0.6,0,1.5,0,2.1c0,2.9,0,3.3,0.1,3.4
				c0.1,0.1,0.5,0.1,1.5,0.1h1.5c0.8,0,1.3-0.2,1.7-0.6c0.6-0.6,1.1-1.9,1.6-3.7c0-0.1,0.4-0.1,0.4,0c0,1.5-0.1,3.1-0.1,4.6
				c0,0.1,0,0.1-0.1,0.1c-2.9,0-3.6,0-5.7,0c-2.4,0-3.5,0-5.4,0c-0.1,0-0.1-0.4,0-0.4c1.4,0,1.6-0.1,1.7-0.1
				c0.1-0.1,0.1-0.9,0.1-3.7c0-1.6,0-3.1,0-5c0-1.9,0-2.2-0.1-2.3c-0.1-0.1-0.3-0.1-1.6-0.1c-0.1,0,0-0.4,0-0.4
				C134.4,172.8,138,172.9,138.9,172.9"/>
			<path class="st6" d="M151.8,172.8h3.1c0.1,0,0.1,0.4,0,0.4c-1.5,0-1.7,0-1.7,0.1c-0.1,0.1-0.1,0.7-0.1,3.2c0,1.7,0,2.3,0,5.6
				c0,1.8,0,2.2,0.1,2.2c0.1,0.1,0.4,0.1,1.4,0.1c1.5,0,2.1-0.2,2.5-0.6c0.5-0.5,1-1.6,1.7-3.9c0-0.1,0.3-0.1,0.3,0
				c0,1.3-0.1,3.7-0.2,4.8c0,0.1,0,0.2-0.2,0.2c-1.5-0.1-3,0-5,0c-2.2,0-3.9,0-5.1,0c-0.1,0-0.1-0.4,0-0.4c1.4,0,1.6,0,1.7-0.1
				c0.1-0.1,0.1-0.4,0.1-1.5c0-2.4,0.1-5,0.1-7.1c0-1.9,0-2.4-0.1-2.5c-0.1-0.1-0.3-0.1-1.6-0.1c-0.1,0-0.1-0.4,0-0.4
				C149.6,172.8,151,172.8,151.8,172.8"/>
			<path class="st6" d="M166,172.8h3.1c0.1,0,0.1,0.4,0,0.4c-1.5,0-1.7,0-1.7,0.1c-0.1,0.1-0.1,0.7-0.1,3.2c0,1.7,0,2.3,0,5.6
				c0,1.8,0,2.2,0.1,2.2c0.1,0.1,0.4,0.1,1.4,0.1c1.5,0,2.1-0.2,2.5-0.6c0.5-0.5,1-1.6,1.7-3.9c0-0.1,0.3-0.1,0.3,0
				c0,1.3-0.1,3.7-0.2,4.8c0,0.1,0,0.2-0.2,0.2c-1.5-0.1-3,0-5,0c-2.2,0-3.9,0-5.1,0c-0.1,0-0.1-0.4,0-0.4c1.4,0,1.6,0,1.7-0.1
				c0.1-0.1,0.1-0.4,0.1-1.5c0-2.4,0.1-5,0.1-7.1c0-1.9,0-2.4-0.1-2.5c-0.1-0.1-0.3-0.1-1.6-0.1c-0.1,0-0.1-0.4,0-0.4
				C163.8,172.8,165.3,172.8,166,172.8"/>
			<path class="st6" d="M189.7,175.1c-0.8,2-1.7,3.9-2.4,5.5c1.2,0.1,3.2,0.1,4.4,0.1C191.1,178.8,190.3,176.6,189.7,175.1
				L189.7,175.1z M185.1,184.1c0.3-0.3,0.6-0.8,0.9-1.5c1.5-3.4,3.1-6.9,4.3-10c0-0.1,0.2-0.1,0.7-0.1c0.6,0,0.7,0,0.7,0.1
				c0.6,1.7,1.5,4.3,3.6,10.2c0.4,1,0.5,1.3,0.8,1.5c0.2,0.2,0.3,0.2,1.4,0.2c0.1,0,0,0.4,0,0.4c-1.1,0-2,0-2.9,0c-1,0-1.8,0-2.9,0
				c-0.1,0-0.1-0.4,0-0.4c0.9-0.1,1.1-0.1,1.2-0.2c0.1-0.1,0.1-0.3,0-0.7c-0.2-0.5-0.5-1.5-0.9-2.5c-0.4,0-1.5-0.1-2.8-0.1
				c-0.7,0-1.2,0-1.8,0c-0.1,0-0.2,0-0.2,0.1c-0.3,0.6-0.4,1-0.7,1.6c-0.1,0.3-0.2,0.7-0.2,0.9c0,0.6,0.3,0.7,1.5,0.8
				c0,0,0,0.3,0,0.3c-1.1,0-2.8,0-4.1,0c0,0,0-0.3,0-0.3C184.6,184.5,184.8,184.4,185.1,184.1"/>
			<path class="st6" d="M200.5,173.2c-0.1,0-0.1-0.4,0-0.4c1.5,0,3.7,0,4.4,0c0.2,0,0.3,0,0.4,0.2c1,2.3,2.4,6,3.3,8.3h0
				c1-2.8,2.2-6,2.9-8.4c0.1-0.1,0.2-0.1,1.2-0.1c0.7,0,2.4,0,3.3,0.1c0.1,0,0.1,0.4,0,0.4c-1.3,0-1.4,0-1.5,0.1
				c0,0-0.1,0.2-0.1,3.1c0,2.4,0,4.9,0,6.2c0,1.4,0.1,1.6,0.2,1.7c0.1,0.1,0.4,0.1,1.4,0.2c0.1,0,0.1,0.4,0,0.4c-0.2,0-1.6,0-3.1,0
				c-0.6,0-2.3,0-2.8,0c-0.1,0-0.1-0.4,0-0.4c1.2-0.1,1.4-0.1,1.5-0.2c0.1-0.1,0.2-0.3,0.1-1.6c0-1.1,0-8.1,0-8.8h-0.1
				c-1.2,3.5-2.9,7.9-3.9,11.1c0,0.1-0.1,0.1-0.4,0.1c-0.2,0-0.3,0-0.3-0.1c-0.4-1.4-3-8.2-4.3-10.9h-0.1c0,3.7,0,7.5,0,8.4
				c0,1.2,0.1,1.6,0.3,1.8c0.1,0.2,0.4,0.2,1.5,0.3c0.1,0,0.1,0.3,0,0.3c-0.6,0-3.7,0-4.3,0c-0.1,0-0.1-0.3,0-0.4
				c1.1-0.1,1.3-0.1,1.5-0.3c0.2-0.2,0.4-0.7,0.4-1.7c0-2.9,0.1-6.3,0.1-8.3c0-0.6,0-0.7-0.1-0.8C202.2,173.3,202,173.3,200.5,173.2
				"/>
			<path class="st6" d="M231,179.2v2.5c0,2.4,0,2.5,0.1,2.6c0.1,0.1,0.4,0.2,1.2,0.2c1.6,0,2.2-0.4,2.6-1.1c0.2-0.4,0.3-0.9,0.3-1.9
				c0-0.8-0.1-1.3-0.3-1.7c-0.4-0.8-1.2-1.1-2.8-1.1c-0.9,0-1,0-1.1,0C231,178.8,231,178.9,231,179.2 M231,173.3
				c-0.1,0.2-0.1,0.4-0.1,2c0,0.9,0,1.9,0,2.7c0,0.2,0,0.3,0,0.3c0.1,0,0.3,0.1,1.3,0.1c1.1,0,1.7-0.3,2-0.8c0.2-0.4,0.3-1,0.3-2
				c0-0.7-0.1-1.1-0.3-1.5c-0.3-0.5-0.8-0.8-2.6-0.8C231.3,173.2,231.1,173.2,231,173.3 M231.9,172.8c2.7,0,4.1,0.4,5,1.2
				c0.4,0.4,0.6,0.9,0.6,1.4c0,1.9-1.7,2.8-3.6,3.1v0c2,0.3,4,1.1,4,2.9c0,0.8-0.3,1.5-0.8,2c-0.8,0.8-2.3,1.4-4.4,1.4
				c-1.3,0-2.6-0.1-3.3-0.1c-1.1,0-2.1,0-2.9,0c-0.1,0-0.1-0.4,0-0.4c1.2,0,1.6-0.1,1.6-0.1c0.1-0.1,0.2-0.3,0.2-1.1c0-2,0-3,0-4.9
				c0-1.7,0-2.9-0.1-4.4c0-0.5,0-0.7-0.1-0.7c-0.1-0.1-0.2-0.1-1.5-0.1c0,0,0-0.3,0-0.3C227.9,172.8,230.4,172.8,231.9,172.8"/>
			<path class="st6" d="M245.3,179.3c0,2.1,0.2,3.1,0.6,3.9c0.5,1.1,1.6,1.5,2.7,1.5c1.4,0,2.3-0.6,2.9-1.7c0.4-0.8,0.7-2.2,0.7-4.2
				c0-2.4-0.2-3.6-0.6-4.5c-0.4-0.8-1.2-1.3-2.8-1.3c-1.5,0-2.4,0.8-2.9,1.6C245.5,175.5,245.3,176.8,245.3,179.3 M243.9,183.1
				c-1-1-1.7-2.3-1.7-4.3c0-1.5,0.6-3,1.8-4.2c1.2-1.2,2.8-2,5-2c2,0,3.5,0.9,4.6,1.9c1,1,1.6,2.4,1.6,4c0,1.8-0.8,3.4-2,4.7
				c-1,1-2.6,1.9-4.7,1.9C246.7,185.1,245.1,184.2,243.9,183.1"/>
			<path class="st6" d="M263.5,173.9c0,0.8,0,3.7,0,5.1c0,1.3,0,2.9,0,4.3c0,0.7,0.1,1,0.1,1c0.1,0.1,0.2,0.1,1.5,0.1
				c1.6,0,2.8-0.6,3.4-1.8c0.4-0.8,0.6-1.8,0.6-3.6c0-1.9-0.2-3.4-0.7-4.3c-0.5-1.1-1.4-1.5-3.3-1.5c-1.2,0-1.4,0-1.5,0.1
				C263.5,173.4,263.5,173.5,263.5,173.9 M262.1,172.8c1,0,2.3,0,3.3,0c2.3,0,4,0.6,5.2,1.8c0.9,0.9,1.4,2.2,1.4,3.7
				c0,2.1-0.8,3.5-1.8,4.6c-1.2,1.2-2.9,2-5,2c-1.1,0-2.7-0.1-3.7,0c-1,0-1.9,0-2.5,0c-0.1,0-0.1-0.4,0-0.4c1.3-0.1,1.6-0.1,1.6-0.1
				c0.1-0.1,0.1-0.4,0.1-1.2c0-0.7,0-2.2,0-3.4c0-1.3,0-3.6,0-4.7c0-1.1-0.1-1.7-0.2-1.8c-0.1-0.1-0.5-0.1-1.6-0.1
				c-0.1,0-0.1-0.4,0-0.4C260.1,172.8,261.2,172.8,262.1,172.8"/>
			<path class="st6" d="M281.3,172.9c1.5,0,3.1,0,5.1-0.1c0.1,0,0.1,0.1,0.1,0.2c-0.1,1.3-0.2,2.9-0.2,4.1c0,0.1-0.3,0.1-0.3,0
				c-0.5-1.7-1-2.7-1.4-3.2c-0.5-0.5-0.9-0.6-2.7-0.6c-1.4,0-1.6,0-1.7,0c0,0,0,0.6,0,2.3c0,0.7,0,2,0,2.7c0.4,0,0.6,0,1.1,0
				c0.9,0,1.4-0.2,1.7-0.4c0.3-0.2,0.4-0.6,0.6-1.9c0-0.1,0.4-0.1,0.4,0c0,1.9-0.1,3.8,0,5.1c0,0.1-0.3,0.1-0.3,0
				c-0.3-1.3-0.5-1.9-0.7-2.1c-0.2-0.2-0.5-0.3-1.3-0.3c-0.6,0-1.1,0-1.4,0c0,0.6,0,1.5,0,2.1c0,2.9,0,3.3,0.1,3.4
				c0.1,0.1,0.5,0.1,1.5,0.1h1.5c0.8,0,1.3-0.2,1.7-0.6c0.6-0.6,1.1-1.9,1.6-3.7c0-0.1,0.4-0.1,0.4,0c0,1.5-0.1,3.1-0.1,4.6
				c0,0.1,0,0.1-0.1,0.1c-2.9,0-3.6,0-5.7,0c-2.4,0-3.5,0-5.4,0c-0.1,0-0.1-0.4,0-0.4c1.4,0,1.6-0.1,1.7-0.1
				c0.1-0.1,0.1-0.9,0.1-3.7c0-1.6,0-3.1,0-5c0-1.9,0-2.2-0.1-2.3c-0.1-0.1-0.3-0.1-1.6-0.1c-0.1,0,0-0.4,0-0.4
				C276.8,172.8,280.5,172.9,281.3,172.9"/>
			<path class="st6" d="M302.1,172.9c0.5,0,1,0,1.7-0.1c0.1,0,0.1,0.3,0,0.4c-1,0.1-1.2,0.2-1.3,0.3c-0.2,0.2-0.3,0.8-0.3,3.9
				c0,1.4,0,2.7,0,4c0,1.5,0.1,2.5,0.1,3.7c0,0.1-0.1,0.1-0.7,0.1c-0.4,0-0.5,0-0.5,0c-2-3.1-5.4-7.7-7.6-10.8h0
				c0,2.3,0.1,5.1,0.1,7.7c0,1.6,0.2,2.1,0.3,2.3c0.1,0.1,0.5,0.2,1.7,0.3c0.1,0,0.1,0.4,0,0.4c-0.9-0.1-1.4-0.1-2.3-0.1
				c-0.8,0-1.4,0-2.2,0c-0.1,0-0.1-0.4,0-0.4c1.1-0.1,1.4-0.2,1.5-0.3c0.2-0.2,0.4-0.8,0.4-2.6c0-2.2-0.1-4.6-0.1-7.6
				c0-0.1-0.1-0.3-0.3-0.5c-0.2-0.2-0.7-0.3-1.7-0.4c-0.1,0-0.1-0.4,0-0.4c0.7,0,1.5,0,2.1,0c1,0,2,0,2.6-0.1c0.1,0,0.2,0.1,0.6,0.6
				c1.8,2.5,3.7,5.3,5.5,7.8h0c0-1,0-2.7,0-3.8c0-2.6-0.2-3.6-0.4-3.9c-0.2-0.2-0.5-0.2-1.6-0.3c-0.1,0-0.1-0.3,0-0.3
				C300.2,172.8,301.4,172.9,302.1,172.9"/>
			<path class="st6" d="M316.5,172.6c0-0.1,0.3,0,0.3,0c-0.1,1.3-0.1,2.4-0.1,3.9c0,0.1-0.3,0.1-0.3,0c-0.5-1.3-1-2-1.5-2.5
				c-0.6-0.6-1.3-1-2.5-1c-1,0-1.6,0.3-2.1,0.7c-0.4,0.4-0.6,0.9-0.6,1.4c0,1.2,0.9,1.6,3,2.2c2.3,0.6,3.3,1.1,3.9,1.7
				c0.5,0.5,0.8,1.2,0.8,2.2c0,2.2-1.9,3.8-4.4,3.8c-2.2,0-3.4-1.1-3.8-1.1c-0.2,0-0.7,0.4-1,1c-0.1,0.1-0.3,0-0.3,0
				c0-1.4,0-2.5-0.1-4.3c0-0.1,0.3-0.1,0.3-0.1c0.7,1.6,1.2,2.4,1.8,3c0.7,0.7,1.8,1.2,3,1.2c1,0,1.7-0.3,2.1-0.7
				c0.4-0.4,0.6-0.8,0.6-1.4c0-1.1-0.8-1.7-3.1-2.3c-2.1-0.5-3.1-1-3.7-1.6c-0.5-0.5-0.8-1.1-0.8-2.2c0-2,1.7-3.8,4.3-3.8
				c2.1,0,3.1,0.9,3.2,0.9C315.8,173.6,316.2,173.1,316.5,172.6"/>
			<path class="st6" d="M327.1,172.9c1.5,0,3.1,0,5.1-0.1c0.1,0,0.1,0.1,0.1,0.2c-0.1,1.3-0.2,2.9-0.2,4.1c0,0.1-0.3,0.1-0.3,0
				c-0.5-1.7-1-2.7-1.4-3.2c-0.5-0.5-0.9-0.6-2.7-0.6c-1.4,0-1.6,0-1.7,0c0,0,0,0.6,0,2.3c0,0.7,0,2,0,2.7c0.4,0,0.6,0,1.1,0
				c0.9,0,1.4-0.2,1.7-0.4c0.3-0.2,0.4-0.6,0.6-1.9c0-0.1,0.4-0.1,0.4,0c0,1.9-0.1,3.8,0,5.1c0,0.1-0.3,0.1-0.3,0
				c-0.3-1.3-0.5-1.9-0.7-2.1c-0.2-0.2-0.5-0.3-1.3-0.3c-0.6,0-1.1,0-1.4,0c0,0.6,0,1.5,0,2.1c0,2.9,0,3.3,0.1,3.4
				c0.1,0.1,0.5,0.1,1.5,0.1h1.5c0.8,0,1.3-0.2,1.7-0.6c0.6-0.6,1.1-1.9,1.6-3.7c0-0.1,0.4-0.1,0.4,0c0,1.5-0.1,3.1-0.1,4.6
				c0,0.1,0,0.1-0.1,0.1c-2.9,0-3.6,0-5.7,0c-2.4,0-3.5,0-5.4,0c-0.1,0-0.1-0.4,0-0.4c1.4,0,1.6-0.1,1.7-0.1
				c0.1-0.1,0.1-0.9,0.1-3.7c0-1.6,0-3.1,0-5c0-1.9,0-2.2-0.1-2.3c-0.1-0.1-0.3-0.1-1.6-0.1c-0.1,0,0-0.4,0-0.4
				C322.6,172.8,326.3,172.9,327.1,172.9"/>
			<path class="st6" d="M342.4,172.9c1.5,0,3.1,0,5.1-0.1c0.1,0,0.1,0.1,0.1,0.2c-0.1,1.3-0.2,2.9-0.2,4.1c0,0.1-0.3,0.1-0.3,0
				c-0.5-1.7-1-2.7-1.4-3.2c-0.5-0.5-0.9-0.6-2.7-0.6c-1.4,0-1.6,0-1.7,0c0,0,0,0.6,0,2.3c0,0.7,0,2,0,2.7c0.4,0,0.6,0,1.1,0
				c0.9,0,1.4-0.2,1.7-0.4c0.3-0.2,0.4-0.6,0.6-1.9c0-0.1,0.4-0.1,0.4,0c0,1.9-0.1,3.8,0,5.1c0,0.1-0.3,0.1-0.3,0
				c-0.3-1.3-0.5-1.9-0.7-2.1c-0.2-0.2-0.5-0.3-1.3-0.3c-0.6,0-1.1,0-1.4,0c0,0.6,0,1.5,0,2.1c0,2.9,0,3.3,0.1,3.4
				c0.1,0.1,0.5,0.1,1.5,0.1h1.5c0.8,0,1.3-0.2,1.7-0.6c0.6-0.6,1.1-1.9,1.6-3.7c0-0.1,0.4-0.1,0.4,0c0,1.5-0.1,3.1-0.1,4.6
				c0,0.1,0,0.1-0.1,0.1c-2.9,0-3.6,0-5.7,0c-2.4,0-3.5,0-5.4,0c-0.1,0-0.1-0.4,0-0.4c1.4,0,1.6-0.1,1.7-0.1
				c0.1-0.1,0.1-0.9,0.1-3.7c0-1.6,0-3.1,0-5c0-1.9,0-2.2-0.1-2.3c-0.1-0.1-0.3-0.1-1.6-0.1c-0.1,0,0-0.4,0-0.4
				C337.9,172.8,341.6,172.9,342.4,172.9"/>
		</g>
		<g>
			<path class="st6" d="M22.9,77h15.3c4.9,0,8.3,1.3,10.5,3.5c1.9,1.8,2.9,4.3,2.9,7.5v0.1c0,4.9-2.6,8.2-6.6,9.9l7.7,11.2H42.2
				l-6.5-9.8h-0.1h-3.8v9.8h-8.9V77z M37.7,92.5c3,0,4.8-1.5,4.8-3.8v-0.1c0-2.5-1.8-3.8-4.8-3.8h-5.9v7.7H37.7z"/>
			<path class="st6" d="M155,77.2h8.9v24.3h15.5v7.8H155V77.2z"/>
			<path class="st6" d="M187.3,77.2h25.6V85h-16.8v5.4h15.2v7.4h-15.2v11.4h-8.9V77.2z"/>
			<path class="st6" d="M220.2,102.8l16.1-18.1h-15.5v-7.5h27.8v6.5l-16.1,18.1h16.1v7.5h-28.3V102.8z"/>
			<path class="st6" d="M257,77.2h25.8v7.6h-17v4.9h15.4v7h-15.4v5.1H283v7.6h-26V77.2z"/>
			<path class="st6" d="M291.4,77.2h8.9v24.3h15.5v7.8h-24.4V77.2z"/>
			<path class="st6" d="M323.8,77.2h8.9v24.3h15.5v7.8h-24.4V77.2z"/>
		</g>
	</g>
</g>
</svg>
