<?xml version="1.0" encoding="UTF-8" standalone="no"?>
<!-- Generator: Adobe Illustrator 15.0.2, SVG Export Plug-In . SVG Version: 6.00 Build 0)  -->

<svg
   xmlns:dc="http://purl.org/dc/elements/1.1/"
   xmlns:cc="http://creativecommons.org/ns#"
   xmlns:rdf="http://www.w3.org/1999/02/22-rdf-syntax-ns#"
   xmlns:svg="http://www.w3.org/2000/svg"
   xmlns="http://www.w3.org/2000/svg"
   xmlns:sodipodi="http://sodipodi.sourceforge.net/DTD/sodipodi-0.dtd"
   xmlns:inkscape="http://www.inkscape.org/namespaces/inkscape"
   version="1.0"
   id="Layer_1"
   x="0px"
   y="0px"
   width="2481px"
   height="2073px"
   viewBox="0 0 2481 2073"
   enable-background="new 0 0 2481 2073"
   xml:space="preserve"
   inkscape:version="0.91 r13725"
   sodipodi:docname="map-pin-visited.svg"><metadata
     id="metadata4149"><rdf:RDF><cc:Work
         rdf:about=""><dc:format>image/svg+xml</dc:format><dc:type
           rdf:resource="http://purl.org/dc/dcmitype/StillImage" /><dc:title /></cc:Work></rdf:RDF></metadata><defs
     id="defs4147" /><sodipodi:namedview
     pagecolor="#ffffff"
     bordercolor="#666666"
     borderopacity="1"
     objecttolerance="10"
     gridtolerance="10"
     guidetolerance="10"
     inkscape:pageopacity="0"
     inkscape:pageshadow="2"
     inkscape:window-width="1282"
     inkscape:window-height="671"
     id="namedview4145"
     showgrid="false"
     inkscape:zoom="0.43897733"
     inkscape:cx="568.26345"
     inkscape:cy="1218.7418"
     inkscape:window-x="551"
     inkscape:window-y="134"
     inkscape:window-maximized="0"
     inkscape:current-layer="Layer_1" /><path
     style="clip-rule:evenodd;fill:#ffffff;fill-rule:evenodd;stroke:#000000;stroke-width:37;stroke-miterlimit:10;fill-opacity:1"
     inkscape:connector-curvature="0"
     id="path4139"
     d="M 730.94,1839.629 C 692.174,1649.328 623.824,1490.964 541.037,1344.189 479.63,1235.317 408.493,1134.826 342.673,1029.251 320.701,994.007 301.739,956.774 280.626,920.197 238.41,847.06 204.182,762.262 206.357,652.265 c 2.125,-107.473 33.208,-193.684 78.03,-264.172 73.719,-115.935 197.201,-210.989 362.884,-235.969 135.466,-20.424 262.475,14.082 352.543,66.748 73.6,43.038 130.596,100.527 173.92,168.28 45.22,70.716 76.359,154.26 78.971,263.232 1.337,55.83 -7.805,107.532 -20.684,150.418 -13.034,43.409 -33.996,79.695 -52.646,118.454 -36.406,75.659 -82.049,144.982 -127.855,214.346 -136.437,206.606 -264.496,417.31 -320.58,706.027 z"
     stroke-miterlimit="10" /><path
     style="clip-rule:evenodd;opacity:0.08999999;fill-rule:evenodd"
     inkscape:connector-curvature="0"
     id="path4141"
     d="m 731.379,1934.407 c 131.604,-120.864 211.314,-235.977 269.138,-350.49 42.892,-84.942 70.542,-169.166 106.953,-254.061 12.156,-28.34 28.508,-56.568 42.519,-85.3 28.018,-57.449 72.657,-118.133 169.03,-178.096 94.16,-58.588 193.955,-93.756 291.58,-114.697 160.565,-34.442 344.277,-37.299 502.593,15.593 129.444,43.246 204.674,113.469 233.778,178.863 23.783,53.438 21.428,108.185 -1.045,163.103 -23.455,57.32 -69.568,116.065 -161.105,177.391 -46.898,31.417 -98.9,56.333 -146.412,74.868 -48.088,18.761 -96.6,30.392 -145.328,44.32 -95.119,27.188 -192.42,47.153 -289.891,67.076 -290.323,59.339 -577.251,124.321 -871.81,261.43 z" /><style
     id="style4"
     type="text/css">
	.st0{display:none;}
	.st1{display:inline;}
	.st2{fill:#014898;}
	.st3{fill:#DE3814;}
	.st4{fill:#FFFFFF;}
	.st5{fill:#E10C14;}
	.st6{fill:#1C3F8D;}
</style><g
     style="display:none"
     id="Ebene_2"
     class="st0"
     transform="matrix(2.0075393,0,0,2.5169958,359.04727,329.56648)"><g
       style="display:inline"
       class="st1"
       id="g7"><g
         id="g9"><path
           style="fill:#014898"
           inkscape:connector-curvature="0"
           class="st2"
           d="m -1297.8,-1638 14.8,0 c 4.8,0 8.1,1.3 10.2,3.4 1.8,1.8 2.8,4.2 2.8,7.3 l 0,0.1 c 0,4.8 -2.6,8 -6.5,9.6 l 7.5,10.9 -10,0 -6.3,-9.5 -0.1,0 -3.7,0 0,9.5 -8.7,0 0,-31.3 z m 14.4,15.1 c 3,0 4.7,-1.4 4.7,-3.7 l 0,-0.1 c 0,-2.5 -1.8,-3.7 -4.7,-3.7 l -5.7,0 0,7.5 5.7,0 z"
           id="path11" /></g><path
         style="fill:#de3814"
         inkscape:connector-curvature="0"
         class="st3"
         d="m -1247.7,-1630.7 -14.5,0 0,-7.3 24.2,0 0,6.5 -13.8,24.8 -9.6,0 13.7,-24 z"
         id="path13" /><path
         style="fill:#de3814"
         inkscape:connector-curvature="0"
         class="st3"
         d="m -1233.3,-1611 5,-5.8 c 2.6,2.2 5,3.4 7.6,3.4 2.9,0 4.6,-1.4 4.6,-3.7 l 0,-0.1 c 0,-2.2 -1.9,-3.6 -4.6,-3.6 -1.9,0 -3.5,0.7 -5,1.6 l -5.2,-2.9 0.9,-15.9 21,0 0,7.2 -14.1,0 -0.3,4.7 c 1.4,-0.7 2.9,-1.1 5,-1.1 5.6,0 10.8,3.1 10.8,9.9 l 0,0.1 c 0,7 -5.3,11.2 -12.9,11.2 -5.6,0 -9.5,-1.9 -12.8,-5 z"
         id="path15" /><g
         id="g17"><path
           style="fill:#de3814"
           inkscape:connector-curvature="0"
           class="st3"
           d="m -1201.1,-1622.2 0,0 c 0,-9 5.6,-16.4 14.6,-16.4 8.9,0 14.5,7.3 14.5,16.2 l 0,0.1 c 0,8.9 -5.6,16.3 -14.6,16.3 -9,0 -14.5,-7.3 -14.5,-16.2 z m 20.3,0 0,0 c 0,-5.1 -2.4,-8.7 -5.8,-8.7 -3.5,0 -5.7,3.5 -5.7,8.5 l 0,0.1 c 0,5 2.3,8.6 5.8,8.6 3.5,0 5.7,-3.5 5.7,-8.5 z"
           id="path19" /></g><g
         id="g21"><path
           style="fill:#014898"
           inkscape:connector-curvature="0"
           class="st2"
           d="m -1162.7,-1638 8.7,0 0,23.7 15.2,0 0,7.6 -23.9,0 0,-31.3 z"
           id="path23" /></g><path
         style="fill:#014898"
         inkscape:connector-curvature="0"
         class="st2"
         d="m -1130.7,-1638 25.1,0 0,7.6 -16.4,0 0,5.3 14.8,0 0,7.2 -14.8,0 0,11.2 -8.7,0 0,-31.3 z"
         id="path25" /><path
         style="fill:#014898"
         inkscape:connector-curvature="0"
         class="st2"
         d="m -1098.9,-1612.9 15.7,-17.7 -15.2,0 0,-7.3 27.2,0 0,6.3 -15.7,17.7 15.7,0 0,7.3 -27.7,0 0,-6.3 z"
         id="path27" /><path
         style="fill:#014898"
         inkscape:connector-curvature="0"
         class="st2"
         d="m -1062.4,-1638 25.2,0 0,7.4 -16.6,0 0,4.7 15.1,0 0,6.9 -15.1,0 0,5 16.8,0 0,7.4 -25.5,0 0,-31.4 z"
         id="path29" /><path
         style="fill:#014898"
         inkscape:connector-curvature="0"
         class="st2"
         d="m -1028.2,-1638 8.7,0 0,23.7 15.2,0 0,7.6 -23.9,0 0,-31.3 z"
         id="path31" /><g
         id="g33"><path
           style="fill:#014898"
           inkscape:connector-curvature="0"
           class="st2"
           d="m -996.6,-1638 8.7,0 0,23.7 15.2,0 0,7.6 -23.9,0 0,-31.3 z"
           id="path35" /></g></g></g><path
     id="path4172"
     d="m 998.99188,568.31527 c -62.09769,64.21515 -107.74723,142.24729 -136.4123,228.00941 -11.97858,35.97271 -21.87125,73.52792 -24.79134,110.90054 -0.71518,5.47805 -3.87374,9.98227 -9.77354,9.98227 -53.93325,0 -107.74728,0 -161.74009,0 -1.48986,0 -3.03932,-0.73046 -4.41,-0.73046 -3.87366,-1.52159 -6.07866,-4.5041 -5.36353,-9.13012 3.03934,-32.86841 11.2634,-65.79771 20.91775,-97.26609 54.76752,-175.84611 185.10113,-312.91959 350.65527,-385.41272 24.7914,-10.71267 45.7091,-18.26024 71.9904,-25.9904 -11.8593,-56.66759 -48.4505,-102.50078 -102.44336,-102.50078 l -526.81716,0 c -59.89266,0 -119.90453,52.89381 -119.90453,118.69152 l 0,526.4425 c 0,65.79776 59.89267,120.21326 120.02373,120.21326 l 526.69796,0 c 59.89276,0 102.56256,-54.2328 102.56256,-120.21326 l 0,-453.40156 c -37.4255,22.21661 -69.6662,48.38962 -101.19182,80.40589 z M 633.49753,916.53793 c -1.48987,0 -3.87365,0 -5.36352,0 -3.03934,0 -7.44935,-0.73035 -8.93921,-4.50422 C 575.15431,805.6375 530.81585,699.24117 485.70267,592.96659 c -3.03933,-6.87803 0,-15.3386 8.9392,-15.3386 53.93321,0 107.74723,0 161.74002,0.73041 3.87366,-0.73041 7.44935,0.73041 9.77354,5.47807 14.18354,31.34675 29.3206,62.81525 43.50414,94.89241 5.36351,11.50386 0.71513,16.19066 -5.36353,27.57295 -11.2634,19.11238 -20.91775,39.07691 -28.36708,59.71088 -17.34206,44.98104 -30.69127,93.30987 -32.89628,142.24724 0.23838,4.32164 -4.35041,8.27798 -9.53515,8.27798 z"
     inkscape:connector-curvature="0"
     style="fill:#66696c;fill-opacity:1" /></svg>