<?xml version="1.0" encoding="UTF-8" standalone="no"?>
<!-- Generator: Adobe Illustrator 15.0.2, SVG Export Plug-In . SVG Version: 6.00 Build 0)  -->

<svg
   xmlns:dc="http://purl.org/dc/elements/1.1/"
   xmlns:cc="http://creativecommons.org/ns#"
   xmlns:rdf="http://www.w3.org/1999/02/22-rdf-syntax-ns#"
   xmlns:svg="http://www.w3.org/2000/svg"
   xmlns="http://www.w3.org/2000/svg"
   xmlns:sodipodi="http://sodipodi.sourceforge.net/DTD/sodipodi-0.dtd"
   xmlns:inkscape="http://www.inkscape.org/namespaces/inkscape"
   version="1.0"
   id="Layer_1"
   x="0px"
   y="0px"
   width="2481px"
   height="2073px"
   viewBox="0 0 2481 2073"
   enable-background="new 0 0 2481 2073"
   xml:space="preserve"
   inkscape:version="0.91 r13725"
   sodipodi:docname="map-pin.svg"><metadata
     id="metadata4149"><rdf:RDF><cc:Work
         rdf:about=""><dc:format>image/svg+xml</dc:format><dc:type
           rdf:resource="http://purl.org/dc/dcmitype/StillImage" /></cc:Work></rdf:RDF></metadata><defs
     id="defs4147" /><sodipodi:namedview
     pagecolor="#ffffff"
     bordercolor="#666666"
     borderopacity="1"
     objecttolerance="10"
     gridtolerance="10"
     guidetolerance="10"
     inkscape:pageopacity="0"
     inkscape:pageshadow="2"
     inkscape:window-width="1477"
     inkscape:window-height="857"
     id="namedview4145"
     showgrid="false"
     inkscape:zoom="0.43897733"
     inkscape:cx="1240.5"
     inkscape:cy="1218.7418"
     inkscape:window-x="90"
     inkscape:window-y="90"
     inkscape:window-maximized="0"
     inkscape:current-layer="Layer_1" /><path
     style="clip-rule:evenodd;fill:#ffffff;fill-rule:evenodd;stroke:#000000;stroke-width:37;stroke-miterlimit:10;fill-opacity:1"
     inkscape:connector-curvature="0"
     id="path4139"
     d="M 730.94,1839.629 C 692.174,1649.328 623.824,1490.964 541.037,1344.189 479.63,1235.317 408.493,1134.826 342.673,1029.251 320.701,994.007 301.739,956.774 280.626,920.197 238.41,847.06 204.182,762.262 206.357,652.265 c 2.125,-107.473 33.208,-193.684 78.03,-264.172 73.719,-115.935 197.201,-210.989 362.884,-235.969 135.466,-20.424 262.475,14.082 352.543,66.748 73.6,43.038 130.596,100.527 173.92,168.28 45.22,70.716 76.359,154.26 78.971,263.232 1.337,55.83 -7.805,107.532 -20.684,150.418 -13.034,43.409 -33.996,79.695 -52.646,118.454 -36.406,75.659 -82.049,144.982 -127.855,214.346 -136.437,206.606 -264.496,417.31 -320.58,706.027 z"
     stroke-miterlimit="10" /><path
     style="clip-rule:evenodd;opacity:0.08999999;fill-rule:evenodd"
     inkscape:connector-curvature="0"
     id="path4141"
     d="m 731.379,1934.407 c 131.604,-120.864 211.314,-235.977 269.138,-350.49 42.892,-84.942 70.542,-169.166 106.953,-254.061 12.156,-28.34 28.508,-56.568 42.519,-85.3 28.018,-57.449 72.657,-118.133 169.03,-178.096 94.16,-58.588 193.955,-93.756 291.58,-114.697 160.565,-34.442 344.277,-37.299 502.593,15.593 129.444,43.246 204.674,113.469 233.778,178.863 23.783,53.438 21.428,108.185 -1.045,163.103 -23.455,57.32 -69.568,116.065 -161.105,177.391 -46.898,31.417 -98.9,56.333 -146.412,74.868 -48.088,18.761 -96.6,30.392 -145.328,44.32 -95.119,27.188 -192.42,47.153 -289.891,67.076 -290.323,59.339 -577.251,124.321 -871.81,261.43 z" /><style
     id="style4"
     type="text/css">
	.st0{display:none;}
	.st1{display:inline;}
	.st2{fill:#014898;}
	.st3{fill:#DE3814;}
	.st4{fill:#FFFFFF;}
	.st5{fill:#E10C14;}
	.st6{fill:#1C3F8D;}
</style><g
     style="display:none"
     id="Ebene_2"
     class="st0"
     transform="matrix(2.0075393,0,0,2.5169958,359.04727,329.56648)"><g
       style="display:inline"
       class="st1"
       id="g7"><g
         id="g9"><path
           style="fill:#014898"
           inkscape:connector-curvature="0"
           class="st2"
           d="m -1297.8,-1638 14.8,0 c 4.8,0 8.1,1.3 10.2,3.4 1.8,1.8 2.8,4.2 2.8,7.3 l 0,0.1 c 0,4.8 -2.6,8 -6.5,9.6 l 7.5,10.9 -10,0 -6.3,-9.5 -0.1,0 -3.7,0 0,9.5 -8.7,0 0,-31.3 z m 14.4,15.1 c 3,0 4.7,-1.4 4.7,-3.7 l 0,-0.1 c 0,-2.5 -1.8,-3.7 -4.7,-3.7 l -5.7,0 0,7.5 5.7,0 z"
           id="path11" /></g><path
         style="fill:#de3814"
         inkscape:connector-curvature="0"
         class="st3"
         d="m -1247.7,-1630.7 -14.5,0 0,-7.3 24.2,0 0,6.5 -13.8,24.8 -9.6,0 13.7,-24 z"
         id="path13" /><path
         style="fill:#de3814"
         inkscape:connector-curvature="0"
         class="st3"
         d="m -1233.3,-1611 5,-5.8 c 2.6,2.2 5,3.4 7.6,3.4 2.9,0 4.6,-1.4 4.6,-3.7 l 0,-0.1 c 0,-2.2 -1.9,-3.6 -4.6,-3.6 -1.9,0 -3.5,0.7 -5,1.6 l -5.2,-2.9 0.9,-15.9 21,0 0,7.2 -14.1,0 -0.3,4.7 c 1.4,-0.7 2.9,-1.1 5,-1.1 5.6,0 10.8,3.1 10.8,9.9 l 0,0.1 c 0,7 -5.3,11.2 -12.9,11.2 -5.6,0 -9.5,-1.9 -12.8,-5 z"
         id="path15" /><g
         id="g17"><path
           style="fill:#de3814"
           inkscape:connector-curvature="0"
           class="st3"
           d="m -1201.1,-1622.2 0,0 c 0,-9 5.6,-16.4 14.6,-16.4 8.9,0 14.5,7.3 14.5,16.2 l 0,0.1 c 0,8.9 -5.6,16.3 -14.6,16.3 -9,0 -14.5,-7.3 -14.5,-16.2 z m 20.3,0 0,0 c 0,-5.1 -2.4,-8.7 -5.8,-8.7 -3.5,0 -5.7,3.5 -5.7,8.5 l 0,0.1 c 0,5 2.3,8.6 5.8,8.6 3.5,0 5.7,-3.5 5.7,-8.5 z"
           id="path19" /></g><g
         id="g21"><path
           style="fill:#014898"
           inkscape:connector-curvature="0"
           class="st2"
           d="m -1162.7,-1638 8.7,0 0,23.7 15.2,0 0,7.6 -23.9,0 0,-31.3 z"
           id="path23" /></g><path
         style="fill:#014898"
         inkscape:connector-curvature="0"
         class="st2"
         d="m -1130.7,-1638 25.1,0 0,7.6 -16.4,0 0,5.3 14.8,0 0,7.2 -14.8,0 0,11.2 -8.7,0 0,-31.3 z"
         id="path25" /><path
         style="fill:#014898"
         inkscape:connector-curvature="0"
         class="st2"
         d="m -1098.9,-1612.9 15.7,-17.7 -15.2,0 0,-7.3 27.2,0 0,6.3 -15.7,17.7 15.7,0 0,7.3 -27.7,0 0,-6.3 z"
         id="path27" /><path
         style="fill:#014898"
         inkscape:connector-curvature="0"
         class="st2"
         d="m -1062.4,-1638 25.2,0 0,7.4 -16.6,0 0,4.7 15.1,0 0,6.9 -15.1,0 0,5 16.8,0 0,7.4 -25.5,0 0,-31.4 z"
         id="path29" /><path
         style="fill:#014898"
         inkscape:connector-curvature="0"
         class="st2"
         d="m -1028.2,-1638 8.7,0 0,23.7 15.2,0 0,7.6 -23.9,0 0,-31.3 z"
         id="path31" /><g
         id="g33"><path
           style="fill:#014898"
           inkscape:connector-curvature="0"
           class="st2"
           d="m -996.6,-1638 8.7,0 0,23.7 15.2,0 0,7.6 -23.9,0 0,-31.3 z"
           id="path35" /></g></g></g><rect
     x="404.81915"
     y="382.67508"
     class="st5"
     width="653.05249"
     height="22.652962"
     id="rect42"
     style="fill:#e10c14" /><path
     class="st6"
     d="m 1057.8717,958.56373 c -18.6701,0 -28.3063,-12.33328 -36.1357,-22.14956 -7.0264,-9.06119 -12.246,-15.35368 -23.28746,-15.35368 -11.04147,0 -16.06032,6.54419 -23.28746,15.35368 -7.8294,9.81628 -17.46559,22.14956 -36.13571,22.14956 -18.67011,0 -28.3063,-12.33328 -36.1357,-22.14956 -7.02639,-9.06119 -12.24599,-15.35368 -23.28746,-15.35368 -11.04147,0 -16.06031,6.54419 -23.28746,15.35368 -7.8294,9.81628 -17.46559,22.14956 -36.1357,22.14956 -18.67012,0 -28.30631,-12.33328 -36.13571,-22.14956 -7.02639,-9.06119 -12.24599,-15.35368 -23.28746,-15.35368 -11.04146,0 -16.06031,6.54419 -23.28745,15.35368 -7.82941,9.81628 -17.46559,22.14956 -36.13571,22.14956 -18.67011,0 -28.3063,-12.33328 -36.13571,-22.14956 -7.02638,-9.06119 -12.24599,-15.35368 -23.28745,-15.35368 -11.04147,0 -16.06032,6.54419 -23.28746,15.35368 -7.8294,9.81628 -17.46559,22.14956 -36.13571,22.14956 -18.67011,0 -28.3063,-12.33328 -36.1357,-22.14956 -7.02639,-9.06119 -12.24599,-15.35368 -23.28746,-15.35368 -11.04147,0 -16.06031,6.54419 -23.28746,15.35368 -7.8294,9.81628 -17.46559,22.14956 -36.1357,22.14956 -18.67012,0 -28.30631,-12.33328 -36.13571,-22.14956 -7.02639,-9.06119 -12.24599,-15.35368 -23.28746,-15.35368 l 0,-22.90466 c 18.67012,0 28.30631,12.33328 36.13571,22.14956 7.02639,9.06119 12.24599,15.35368 23.28746,15.35368 11.04146,0 16.06031,-6.54419 23.28745,-15.35368 7.82941,-9.81628 17.4656,-22.14956 36.13571,-22.14956 18.67012,0 28.3063,12.33328 36.13571,22.14956 7.02639,9.06119 12.24599,15.35368 23.28745,15.35368 11.04147,0 16.06032,-6.54419 23.28746,-15.35368 7.8294,-9.81628 17.46559,-22.14956 36.13571,-22.14956 18.67011,0 28.3063,12.33328 36.1357,22.14956 7.02639,9.06119 12.24599,15.35368 23.28746,15.35368 11.04147,0 16.06032,-6.54419 23.28746,-15.35368 7.8294,-9.81628 17.46559,-22.14956 36.1357,-22.14956 18.67012,0 28.30631,12.33328 36.13571,22.14956 7.02639,9.06119 12.24599,15.35368 23.28746,15.35368 11.04146,0 16.06031,-6.54419 23.28745,-15.35368 7.82941,-9.81628 17.46559,-22.14956 36.13571,-22.14956 18.67012,0 28.3063,12.33328 36.13571,22.14956 7.02639,9.06119 12.24599,15.35368 23.28745,15.35368 11.04147,0 16.06032,-6.54419 23.28746,-15.35368 7.8294,-9.81628 17.46559,-22.14956 36.13571,-22.14956 18.67016,0 28.30626,12.33328 36.13566,22.14956 7.0264,9.06119 12.246,15.35368 23.2875,15.35368 l 0,22.90466 z"
     id="path54"
     inkscape:connector-curvature="0"
     style="fill:#1c3f8d" /><g
     id="g4371"
     transform="matrix(5.1570336,0,0,6.4657424,286.92385,48.413091)"><g
       id="g44"><path
         style="fill:#e10c14"
         inkscape:connector-curvature="0"
         id="path46"
         d="m 73.4,84.5 -15,0 0,-7.5 24.8,0 0,6.7 -14.2,25.6 -9.9,0 14.3,-24.8 z"
         class="st5" /><path
         style="fill:#e10c14"
         inkscape:connector-curvature="0"
         id="path48"
         d="m 87.1,104.8 5.1,-6 c 2.6,2.2 5.1,3.5 7.8,3.5 3,0 4.7,-1.5 4.7,-3.8 l 0,-0.1 c 0,-2.3 -1.9,-3.7 -4.7,-3.7 -2,0 -3.6,0.7 -5.2,1.6 l -5.3,-3 1,-16.3 21.6,0 0,7.4 -14.6,0 -0.3,4.9 c 1.5,-0.7 3,-1.2 5.2,-1.2 5.8,0 11.1,3.2 11.1,10.2 l 0,0.1 c 0,7.2 -5.5,11.5 -13.3,11.5 -5.7,0 -9.8,-2 -13.1,-5.1 z"
         class="st5" /><path
         style="fill:#e10c14"
         inkscape:connector-curvature="0"
         id="path50"
         d="m 119.3,93.2 0,0 c 0,-9.2 5.8,-16.9 15,-16.9 9.2,0 14.9,7.6 14.9,16.7 l 0,0.1 c 0,9.1 -5.8,16.8 -15,16.8 -9.3,0 -14.9,-7.5 -14.9,-16.7 z m 20.8,0 0,0 c 0,-5.2 -2.4,-8.9 -6,-8.9 -3.6,0 -5.9,3.6 -5.9,8.8 l 0,0.1 c 0,5.2 2.4,8.9 6,8.9 3.6,0 5.9,-3.8 5.9,-8.9 z"
         class="st5" /></g><g
       id="g124"><path
         style="fill:#1c3f8d"
         inkscape:connector-curvature="0"
         id="path126"
         d="m 22.9,77 15.3,0 c 4.9,0 8.3,1.3 10.5,3.5 1.9,1.8 2.9,4.3 2.9,7.5 l 0,0.1 C 51.6,93 49,96.3 45,98 l 7.7,11.2 -10.5,0 -6.5,-9.8 -0.1,0 -3.8,0 0,9.8 -8.9,0 0,-32.2 z m 14.8,15.5 c 3,0 4.8,-1.5 4.8,-3.8 l 0,-0.1 c 0,-2.5 -1.8,-3.8 -4.8,-3.8 l -5.9,0 0,7.7 5.9,0 z"
         class="st6" /></g></g></svg>